<svg width="98" height="410" viewBox="0 0 98 410" fill="none" xmlns="http://www.w3.org/2000/svg">
<g filter="url(#filter0_d_17_357)">
<path d="M45.625 252.875C45.625 252.709 45.5592 252.55 45.4419 252.433C45.3247 252.316 45.1658 252.25 45 252.25C44.8342 252.25 44.6753 252.316 44.5581 252.433C44.4408 252.55 44.375 252.709 44.375 252.875V253.5H41.875C41.3777 253.5 40.9008 253.698 40.5492 254.049C40.1975 254.401 40 254.878 40 255.375V259.125C40 259.622 40.1975 260.099 40.5492 260.451C40.9008 260.802 41.3777 261 41.875 261H48.125C48.6223 261 49.0992 260.802 49.4508 260.451C49.8025 260.099 50 259.622 50 259.125V255.375C50 254.878 49.8025 254.401 49.4508 254.049C49.0992 253.698 48.6223 253.5 48.125 253.5H45.625V252.875ZM41.25 255.375C41.25 255.209 41.3158 255.05 41.4331 254.933C41.5503 254.816 41.7092 254.75 41.875 254.75H48.125C48.2908 254.75 48.4497 254.816 48.5669 254.933C48.6842 255.05 48.75 255.209 48.75 255.375V259.125C48.75 259.291 48.6842 259.45 48.5669 259.567C48.4497 259.684 48.2908 259.75 48.125 259.75H41.875C41.7092 259.75 41.5503 259.684 41.4331 259.567C41.3158 259.45 41.25 259.291 41.25 259.125V255.375ZM40 264.75C40 264.584 40.0658 264.425 40.1831 264.308C40.3003 264.191 40.4592 264.125 40.625 264.125H49.375C49.5408 264.125 49.6997 264.191 49.8169 264.308C49.9342 264.425 50 264.584 50 264.75V265.188C50 266.371 49.4925 267.158 48.6538 267.68C47.7775 268.226 46.5037 268.5 45 268.5C43.5062 268.5 42.2325 268.227 41.3525 267.68C40.51 267.156 40 266.369 40 265.188V264.75ZM40.625 262.875C40.1277 262.875 39.6508 263.073 39.2992 263.424C38.9475 263.776 38.75 264.253 38.75 264.75V265.188C38.75 266.819 39.5 268 40.6925 268.741C41.8487 269.46 43.3875 269.75 45 269.75C46.6213 269.75 48.16 269.461 49.315 268.741C50.5075 268 51.25 266.816 51.25 265.188V264.75C51.25 264.253 51.0525 263.776 50.7008 263.424C50.3492 263.073 49.8723 262.875 49.375 262.875H40.625ZM44.0625 257.25C44.0625 257.499 43.9637 257.737 43.7879 257.913C43.6121 258.089 43.3736 258.188 43.125 258.188C42.8764 258.188 42.6379 258.089 42.4621 257.913C42.2863 257.737 42.1875 257.499 42.1875 257.25C42.1875 257.001 42.2863 256.763 42.4621 256.587C42.6379 256.411 42.8764 256.312 43.125 256.312C43.3736 256.312 43.6121 256.411 43.7879 256.587C43.9637 256.763 44.0625 257.001 44.0625 257.25ZM46.875 258.188C47.1236 258.188 47.3621 258.089 47.5379 257.913C47.7137 257.737 47.8125 257.499 47.8125 257.25C47.8125 257.001 47.7137 256.763 47.5379 256.587C47.3621 256.411 47.1236 256.312 46.875 256.312C46.6264 256.312 46.3879 256.411 46.2121 256.587C46.0363 256.763 45.9375 257.001 45.9375 257.25C45.9375 257.499 46.0363 257.737 46.2121 257.913C46.3879 258.089 46.6264 258.188 46.875 258.188Z" fill="#424242"/>
<path d="M40.1668 213.333C39.9458 213.333 39.7339 213.246 39.5776 213.089C39.4213 212.933 39.3335 212.721 39.3335 212.5V205.833C39.3335 205.612 39.4213 205.4 39.5776 205.244C39.7339 205.088 39.9458 205 40.1668 205C40.3878 205 40.5998 205.088 40.7561 205.244C40.9124 205.4 41.0002 205.612 41.0002 205.833V212.5C41.0002 212.721 40.9124 212.933 40.7561 213.089C40.5998 213.246 40.3878 213.333 40.1668 213.333ZM44.3335 213.333C44.1125 213.333 43.9005 213.246 43.7442 213.089C43.588 212.933 43.5002 212.721 43.5002 212.5V197.5C43.5002 197.279 43.588 197.067 43.7442 196.911C43.9005 196.754 44.1125 196.667 44.3335 196.667C44.5545 196.667 44.7665 196.754 44.9228 196.911C45.079 197.067 45.1668 197.279 45.1668 197.5V212.5C45.1668 212.721 45.079 212.933 44.9228 213.089C44.7665 213.246 44.5545 213.333 44.3335 213.333ZM48.5002 213.333C48.2791 213.333 48.0672 213.246 47.9109 213.089C47.7546 212.933 47.6668 212.721 47.6668 212.5V202.5C47.6668 202.279 47.7546 202.067 47.9109 201.911C48.0672 201.754 48.2791 201.667 48.5002 201.667C48.7212 201.667 48.9331 201.754 49.0894 201.911C49.2457 202.067 49.3335 202.279 49.3335 202.5V212.5C49.3335 212.721 49.2457 212.933 49.0894 213.089C48.9331 213.246 48.7212 213.333 48.5002 213.333ZM52.6668 213.333C52.4458 213.333 52.2339 213.246 52.0776 213.089C51.9213 212.933 51.8335 212.721 51.8335 212.5V209.167C51.8335 208.946 51.9213 208.734 52.0776 208.577C52.2339 208.421 52.4458 208.333 52.6668 208.333C52.8878 208.333 53.0998 208.421 53.2561 208.577C53.4124 208.734 53.5002 208.946 53.5002 209.167V212.5C53.5002 212.721 53.4124 212.933 53.2561 213.089C53.0998 213.246 52.8878 213.333 52.6668 213.333Z" fill="#424242"/>
<path d="M15.733 167H14.8523C14.8002 166.747 14.709 166.524 14.5788 166.332C14.451 166.141 14.2947 165.98 14.1101 165.849C13.9278 165.717 13.7254 165.617 13.5028 165.551C13.2803 165.485 13.0483 165.452 12.8068 165.452C12.3665 165.452 11.9676 165.563 11.6101 165.786C11.255 166.008 10.9721 166.336 10.7614 166.769C10.553 167.202 10.4489 167.734 10.4489 168.364C10.4489 168.993 10.553 169.525 10.7614 169.958C10.9721 170.391 11.255 170.719 11.6101 170.942C11.9676 171.164 12.3665 171.276 12.8068 171.276C13.0483 171.276 13.2803 171.242 13.5028 171.176C13.7254 171.11 13.9278 171.012 14.1101 170.881C14.2947 170.749 14.451 170.587 14.5788 170.395C14.709 170.201 14.8002 169.978 14.8523 169.727H15.733C15.6667 170.099 15.5459 170.432 15.3707 170.725C15.1955 171.019 14.9777 171.268 14.7173 171.474C14.4569 171.678 14.1645 171.833 13.8402 171.94C13.5182 172.046 13.1738 172.099 12.8068 172.099C12.1866 172.099 11.6349 171.948 11.152 171.645C10.669 171.342 10.2891 170.911 10.0121 170.352C9.73509 169.794 9.59659 169.131 9.59659 168.364C9.59659 167.597 9.73509 166.934 10.0121 166.375C10.2891 165.816 10.669 165.385 11.152 165.082C11.6349 164.779 12.1866 164.628 12.8068 164.628C13.1738 164.628 13.5182 164.681 13.8402 164.788C14.1645 164.894 14.4569 165.05 14.7173 165.256C14.9777 165.46 15.1955 165.709 15.3707 166.002C15.5459 166.293 15.6667 166.626 15.733 167ZM19.2583 172.114C18.7659 172.114 18.3339 171.996 17.9622 171.762C17.5929 171.528 17.304 171.2 17.0957 170.778C16.8897 170.357 16.7868 169.865 16.7868 169.301C16.7868 168.733 16.8897 168.237 17.0957 167.813C17.304 167.389 17.5929 167.06 17.9622 166.826C18.3339 166.592 18.7659 166.474 19.2583 166.474C19.7508 166.474 20.1816 166.592 20.551 166.826C20.9226 167.06 21.2115 167.389 21.4174 167.813C21.6258 168.237 21.7299 168.733 21.7299 169.301C21.7299 169.865 21.6258 170.357 21.4174 170.778C21.2115 171.2 20.9226 171.528 20.551 171.762C20.1816 171.996 19.7508 172.114 19.2583 172.114ZM19.2583 171.361C19.6324 171.361 19.9402 171.265 20.1816 171.073C20.4231 170.881 20.6019 170.629 20.7179 170.317C20.8339 170.004 20.8919 169.666 20.8919 169.301C20.8919 168.937 20.8339 168.597 20.7179 168.282C20.6019 167.967 20.4231 167.713 20.1816 167.518C19.9402 167.324 19.6324 167.227 19.2583 167.227C18.8843 167.227 18.5765 167.324 18.335 167.518C18.0936 167.713 17.9148 167.967 17.7988 168.282C17.6828 168.597 17.6248 168.937 17.6248 169.301C17.6248 169.666 17.6828 170.004 17.7988 170.317C17.9148 170.629 18.0936 170.881 18.335 171.073C18.5765 171.265 18.8843 171.361 19.2583 171.361ZM23.8473 168.719V172H23.0092V166.545H23.8189V167.398H23.8899C24.0178 167.121 24.2119 166.898 24.4723 166.73C24.7327 166.56 25.0689 166.474 25.4808 166.474C25.8501 166.474 26.1733 166.55 26.4503 166.702C26.7273 166.851 26.9427 167.078 27.0966 167.384C27.2505 167.687 27.3274 168.07 27.3274 168.534V172H26.4893V168.591C26.4893 168.162 26.3781 167.829 26.1555 167.589C25.933 167.348 25.6276 167.227 25.2393 167.227C24.9718 167.227 24.7327 167.285 24.522 167.401C24.3137 167.517 24.1491 167.687 24.0284 167.909C23.9077 168.132 23.8473 168.402 23.8473 168.719ZM31.231 166.545V167.256H28.4043V166.545H31.231ZM29.2282 165.239H30.0662V170.438C30.0662 170.674 30.1006 170.852 30.1692 170.97C30.2402 171.086 30.3302 171.164 30.4391 171.205C30.5504 171.242 30.6676 171.261 30.7907 171.261C30.883 171.261 30.9587 171.257 31.0179 171.247C31.0771 171.235 31.1245 171.226 31.16 171.219L31.3304 171.972C31.2736 171.993 31.1943 172.014 31.0925 172.036C30.9907 172.059 30.8617 172.071 30.7054 172.071C30.4687 172.071 30.2367 172.02 30.0094 171.918C29.7845 171.817 29.5975 171.661 29.4483 171.453C29.3016 171.245 29.2282 170.982 29.2282 170.665V165.239ZM34.0968 172.128C33.7511 172.128 33.4374 172.063 33.1557 171.933C32.874 171.8 32.6503 171.609 32.4846 171.361C32.3188 171.11 32.236 170.807 32.236 170.452C32.236 170.139 32.2975 169.886 32.4206 169.692C32.5437 169.495 32.7083 169.341 32.9142 169.23C33.1202 169.119 33.3475 169.036 33.5961 168.982C33.847 168.925 34.0991 168.88 34.3525 168.847C34.6839 168.804 34.9526 168.772 35.1586 168.751C35.3669 168.727 35.5184 168.688 35.6131 168.634C35.7102 168.579 35.7587 168.484 35.7587 168.349V168.321C35.7587 167.971 35.6628 167.698 35.4711 167.504C35.2817 167.31 34.994 167.213 34.6081 167.213C34.208 167.213 33.8944 167.301 33.6671 167.476C33.4398 167.651 33.28 167.838 33.1877 168.037L32.3922 167.753C32.5343 167.421 32.7237 167.163 32.9604 166.979C33.1995 166.792 33.4599 166.661 33.7417 166.588C34.0257 166.512 34.3051 166.474 34.5797 166.474C34.7549 166.474 34.9561 166.496 35.1834 166.538C35.4131 166.579 35.6344 166.663 35.8475 166.79C36.0629 166.918 36.2417 167.111 36.3837 167.369C36.5257 167.627 36.5968 167.973 36.5968 168.406V172H35.7587V171.261H35.7161C35.6593 171.38 35.5646 171.506 35.432 171.641C35.2994 171.776 35.123 171.891 34.9029 171.986C34.6827 172.08 34.414 172.128 34.0968 172.128ZM34.2246 171.375C34.556 171.375 34.8354 171.31 35.0627 171.18C35.2923 171.049 35.4651 170.881 35.5811 170.675C35.6995 170.469 35.7587 170.253 35.7587 170.026V169.259C35.7232 169.301 35.6451 169.34 35.5243 169.376C35.406 169.409 35.2686 169.438 35.1124 169.464C34.9585 169.488 34.8082 169.509 34.6614 169.528C34.517 169.545 34.3998 169.559 34.3098 169.571C34.092 169.599 33.8884 169.646 33.699 169.71C33.512 169.771 33.3605 169.865 33.2445 169.99C33.1309 170.113 33.074 170.281 33.074 170.494C33.074 170.786 33.1818 171.006 33.3972 171.155C33.615 171.302 33.8908 171.375 34.2246 171.375ZM40.3423 172.114C39.831 172.114 39.3906 171.993 39.0213 171.751C38.652 171.51 38.3679 171.177 38.169 170.754C37.9702 170.33 37.8707 169.846 37.8707 169.301C37.8707 168.747 37.9725 168.258 38.1761 167.835C38.3821 167.408 38.6686 167.076 39.0355 166.837C39.4048 166.595 39.8357 166.474 40.3281 166.474C40.7116 166.474 41.0573 166.545 41.3651 166.688C41.6728 166.83 41.925 167.028 42.1214 167.284C42.3179 167.54 42.4399 167.838 42.4872 168.179H41.6491C41.5852 167.93 41.4432 167.71 41.223 167.518C41.0052 167.324 40.7116 167.227 40.3423 167.227C40.0156 167.227 39.7292 167.312 39.483 167.483C39.2391 167.651 39.0485 167.889 38.9112 168.197C38.7763 168.502 38.7088 168.861 38.7088 169.273C38.7088 169.694 38.7751 170.061 38.9077 170.374C39.0426 170.686 39.232 170.929 39.4759 171.102C39.7221 171.274 40.0109 171.361 40.3423 171.361C40.5601 171.361 40.7578 171.323 40.9354 171.247C41.1129 171.171 41.2633 171.062 41.3864 170.92C41.5095 170.778 41.5971 170.608 41.6491 170.409H42.4872C42.4399 170.731 42.3227 171.021 42.1357 171.279C41.951 171.535 41.706 171.738 41.4006 171.89C41.0975 172.039 40.7448 172.114 40.3423 172.114ZM46.0845 166.545V167.256H43.2578V166.545H46.0845ZM44.0817 165.239H44.9197V170.438C44.9197 170.674 44.9541 170.852 45.0227 170.97C45.0938 171.086 45.1837 171.164 45.2926 171.205C45.4039 171.242 45.5211 171.261 45.6442 171.261C45.7365 171.261 45.8123 171.257 45.8714 171.247C45.9306 171.235 45.978 171.226 46.0135 171.219L46.1839 171.972C46.1271 171.993 46.0478 172.014 45.946 172.036C45.8442 172.059 45.7152 172.071 45.5589 172.071C45.3222 172.071 45.0902 172.02 44.8629 171.918C44.638 171.817 44.451 171.661 44.3018 171.453C44.1551 171.245 44.0817 170.982 44.0817 170.665V165.239ZM56.1236 167H55.2429C55.1908 166.747 55.0997 166.524 54.9695 166.332C54.8416 166.141 54.6854 165.98 54.5007 165.849C54.3184 165.717 54.116 165.617 53.8935 165.551C53.6709 165.485 53.4389 165.452 53.1974 165.452C52.7571 165.452 52.3582 165.563 52.0007 165.786C51.6456 166.008 51.3627 166.336 51.152 166.769C50.9437 167.202 50.8395 167.734 50.8395 168.364C50.8395 168.993 50.9437 169.525 51.152 169.958C51.3627 170.391 51.6456 170.719 52.0007 170.942C52.3582 171.164 52.7571 171.276 53.1974 171.276C53.4389 171.276 53.6709 171.242 53.8935 171.176C54.116 171.11 54.3184 171.012 54.5007 170.881C54.6854 170.749 54.8416 170.587 54.9695 170.395C55.0997 170.201 55.1908 169.978 55.2429 169.727H56.1236C56.0573 170.099 55.9366 170.432 55.7614 170.725C55.5862 171.019 55.3684 171.268 55.108 171.474C54.8475 171.678 54.5552 171.833 54.2308 171.94C53.9089 172.046 53.5644 172.099 53.1974 172.099C52.5772 172.099 52.0256 171.948 51.5426 171.645C51.0597 171.342 50.6797 170.911 50.4027 170.352C50.1257 169.794 49.9872 169.131 49.9872 168.364C49.9872 167.597 50.1257 166.934 50.4027 166.375C50.6797 165.816 51.0597 165.385 51.5426 165.082C52.0256 164.779 52.5772 164.628 53.1974 164.628C53.5644 164.628 53.9089 164.681 54.2308 164.788C54.5552 164.894 54.8475 165.05 55.108 165.256C55.3684 165.46 55.5862 165.709 55.7614 166.002C55.9366 166.293 56.0573 166.626 56.1236 167ZM59.72 172.114C59.1944 172.114 58.7411 171.998 58.3599 171.766C57.9811 171.531 57.6887 171.205 57.4828 170.786C57.2792 170.364 57.1774 169.874 57.1774 169.315C57.1774 168.757 57.2792 168.264 57.4828 167.838C57.6887 167.41 57.9752 167.076 58.3422 166.837C58.7115 166.595 59.1423 166.474 59.6348 166.474C59.9189 166.474 60.1994 166.522 60.4764 166.616C60.7534 166.711 61.0055 166.865 61.2328 167.078C61.46 167.289 61.6412 167.568 61.7761 167.916C61.911 168.264 61.9785 168.693 61.9785 169.202V169.557H57.774V168.832H61.1262C61.1262 168.525 61.0647 168.25 60.9416 168.009C60.8208 167.767 60.648 167.576 60.4231 167.437C60.2006 167.297 59.9378 167.227 59.6348 167.227C59.301 167.227 59.0121 167.31 58.7683 167.476C58.5268 167.639 58.341 167.852 58.2108 168.115C58.0806 168.378 58.0154 168.66 58.0154 168.96V169.443C58.0154 169.855 58.0865 170.204 58.2285 170.491C58.3729 170.775 58.573 170.991 58.8287 171.141C59.0843 171.287 59.3815 171.361 59.72 171.361C59.9402 171.361 60.139 171.33 60.3166 171.268C60.4965 171.205 60.6516 171.11 60.7818 170.984C60.912 170.857 61.0126 170.698 61.0836 170.509L61.8933 170.736C61.8081 171.01 61.6648 171.252 61.4636 171.46C61.2624 171.666 61.0138 171.827 60.7179 171.943C60.4219 172.057 60.0893 172.114 59.72 172.114ZM64.0914 168.719V172H63.2534V166.545H64.063V167.398H64.1341C64.2619 167.121 64.456 166.898 64.7164 166.73C64.9769 166.56 65.313 166.474 65.725 166.474C66.0943 166.474 66.4174 166.55 66.6944 166.702C66.9714 166.851 67.1868 167.078 67.3407 167.384C67.4946 167.687 67.5716 168.07 67.5716 168.534V172H66.7335V168.591C66.7335 168.162 66.6222 167.829 66.3997 167.589C66.1771 167.348 65.8717 167.227 65.4835 167.227C65.216 167.227 64.9769 167.285 64.7662 167.401C64.5578 167.517 64.3933 167.687 64.2725 167.909C64.1518 168.132 64.0914 168.402 64.0914 168.719ZM71.4751 166.545V167.256H68.6484V166.545H71.4751ZM69.4723 165.239H70.3104V170.438C70.3104 170.674 70.3447 170.852 70.4134 170.97C70.4844 171.086 70.5743 171.164 70.6832 171.205C70.7945 171.242 70.9117 171.261 71.0348 171.261C71.1271 171.261 71.2029 171.257 71.2621 171.247C71.3213 171.235 71.3686 171.226 71.4041 171.219L71.5746 171.972C71.5178 171.993 71.4384 172.014 71.3366 172.036C71.2348 172.059 71.1058 172.071 70.9496 172.071C70.7128 172.071 70.4808 172.02 70.2536 171.918C70.0286 171.817 69.8416 171.661 69.6925 171.453C69.5457 171.245 69.4723 170.982 69.4723 170.665V165.239ZM74.9641 172.114C74.4386 172.114 73.9852 171.998 73.604 171.766C73.2253 171.531 72.9329 171.205 72.7269 170.786C72.5233 170.364 72.4215 169.874 72.4215 169.315C72.4215 168.757 72.5233 168.264 72.7269 167.838C72.9329 167.41 73.2193 167.076 73.5863 166.837C73.9556 166.595 74.3865 166.474 74.8789 166.474C75.163 166.474 75.4435 166.522 75.7205 166.616C75.9975 166.711 76.2496 166.865 76.4769 167.078C76.7042 167.289 76.8853 167.568 77.0202 167.916C77.1552 168.264 77.2227 168.693 77.2227 169.202V169.557H73.0181V168.832H76.3704C76.3704 168.525 76.3088 168.25 76.1857 168.009C76.065 167.767 75.8922 167.576 75.6673 167.437C75.4447 167.297 75.1819 167.227 74.8789 167.227C74.5451 167.227 74.2563 167.31 74.0124 167.476C73.771 167.639 73.5851 167.852 73.4549 168.115C73.3247 168.378 73.2596 168.66 73.2596 168.96V169.443C73.2596 169.855 73.3306 170.204 73.4727 170.491C73.6171 170.775 73.8171 170.991 74.0728 171.141C74.3285 171.287 74.6256 171.361 74.9641 171.361C75.1843 171.361 75.3832 171.33 75.5607 171.268C75.7406 171.205 75.8957 171.11 76.0259 170.984C76.1561 170.857 76.2567 170.698 76.3278 170.509L77.1374 170.736C77.0522 171.01 76.909 171.252 76.7077 171.46C76.5065 171.666 76.2579 171.827 75.962 171.943C75.6661 172.057 75.3335 172.114 74.9641 172.114ZM78.4975 172V166.545H79.3072V167.369H79.364C79.4634 167.099 79.6433 166.88 79.9038 166.712C80.1642 166.544 80.4577 166.46 80.7844 166.46C80.846 166.46 80.9229 166.461 81.0153 166.464C81.1076 166.466 81.1774 166.47 81.2248 166.474V167.327C81.1964 167.32 81.1313 167.309 81.0295 167.295C80.93 167.278 80.8247 167.27 80.7134 167.27C80.4483 167.27 80.2115 167.326 80.0032 167.437C79.7972 167.546 79.6339 167.697 79.5131 167.891C79.3948 168.083 79.3356 168.302 79.3356 168.548V172H78.4975Z" fill="#424242"/>
<path d="M42.0835 154.33V151.917H40.4168C40.1958 151.917 39.9839 151.829 39.8276 151.673C39.6713 151.516 39.5835 151.304 39.5835 151.083V145.25C39.5835 145.029 39.6713 144.817 39.8276 144.661C39.9839 144.504 40.1958 144.417 40.4168 144.417H49.5835C49.8045 144.417 50.0165 144.504 50.1728 144.661C50.329 144.817 50.4168 145.029 50.4168 145.25V151.083C50.4168 151.304 50.329 151.516 50.1728 151.673C50.0165 151.829 49.8045 151.917 49.5835 151.917H45.0002L42.4393 154.478C42.4102 154.507 42.373 154.527 42.3326 154.535C42.2921 154.543 42.2502 154.539 42.2121 154.523C42.1739 154.507 42.1414 154.48 42.1185 154.446C42.0956 154.412 42.0834 154.371 42.0835 154.33Z" stroke="#424242"/>
<path d="M42.0835 149.417H47.9168M42.0835 146.917H47.9168" stroke="#424242" stroke-linecap="round"/>
<path d="M45.9998 313.333C46.8839 313.333 47.7317 312.982 48.3569 312.357C48.982 311.732 49.3332 310.884 49.3332 310C49.3332 309.116 48.982 308.268 48.3569 307.643C47.7317 307.018 46.8839 306.667 45.9998 306.667C45.1158 306.667 44.2679 307.018 43.6428 307.643C43.0177 308.268 42.6665 309.116 42.6665 310C42.6665 310.884 43.0177 311.732 43.6428 312.357C44.2679 312.982 45.1158 313.333 45.9998 313.333ZM40.5832 315.833C41.1357 315.833 41.6656 315.614 42.0563 315.223C42.447 314.832 42.6665 314.303 42.6665 313.75C42.6665 313.197 42.447 312.668 42.0563 312.277C41.6656 311.886 41.1357 311.667 40.5832 311.667C40.0306 311.667 39.5007 311.886 39.11 312.277C38.7193 312.668 38.4998 313.197 38.4998 313.75C38.4998 314.303 38.7193 314.832 39.11 315.223C39.5007 315.614 40.0306 315.833 40.5832 315.833ZM53.4998 313.75C53.4998 314.303 53.2803 314.832 52.8896 315.223C52.4989 315.614 51.969 315.833 51.4165 315.833C50.864 315.833 50.3341 315.614 49.9434 315.223C49.5527 314.832 49.3332 314.303 49.3332 313.75C49.3332 313.197 49.5527 312.668 49.9434 312.277C50.3341 311.886 50.864 311.667 51.4165 311.667C51.969 311.667 52.4989 311.886 52.8896 312.277C53.2803 312.668 53.4998 313.197 53.4998 313.75ZM45.9998 314.167C47.1049 314.167 48.1647 314.606 48.9461 315.387C49.7275 316.168 50.1665 317.228 50.1665 318.333V323.333H41.8332V318.333C41.8332 317.228 42.2722 316.168 43.0536 315.387C43.835 314.606 44.8948 314.167 45.9998 314.167ZM40.1665 318.333C40.1665 317.756 40.2498 317.198 40.4065 316.672L40.2648 316.683C39.5506 316.762 38.8904 317.101 38.4109 317.636C37.9314 318.171 37.6663 318.865 37.6665 319.583V323.333H40.1665V318.333ZM54.3332 323.333V319.583C54.3333 318.84 54.0498 318.125 53.5406 317.584C53.0314 317.043 52.3348 316.717 51.5932 316.672C51.749 317.198 51.8332 317.756 51.8332 318.333V323.333H54.3332Z" fill="#424242"/>
<path d="M40.9998 100.833H44.0765V96.6025C44.0765 96.4119 44.1412 96.2522 44.2707 96.1233C44.3996 95.9939 44.5593 95.9292 44.7498 95.9292H47.2498C47.4404 95.9292 47.6004 95.9939 47.7298 96.1233C47.8587 96.2522 47.9232 96.4119 47.9232 96.6025V100.833H50.9998V93.59C50.9998 93.5044 50.9812 93.4267 50.944 93.3567C50.9068 93.2867 50.8559 93.2256 50.7915 93.1733L46.3048 89.7917C46.2193 89.7172 46.1176 89.68 45.9998 89.68C45.8821 89.68 45.7807 89.7172 45.6957 89.7917L41.2082 93.1733C41.1443 93.2267 41.0934 93.2878 41.0557 93.3567C41.0179 93.4256 40.9993 93.5033 40.9998 93.59V100.833ZM40.1665 100.833V93.59C40.1665 93.3767 40.2143 93.1747 40.3098 92.9842C40.4054 92.7936 40.5371 92.6367 40.7048 92.5133L45.1923 89.115C45.4273 88.9356 45.6957 88.8458 45.9973 88.8458C46.299 88.8458 46.569 88.9356 46.8073 89.115L51.2948 92.5125C51.4632 92.6358 51.5948 92.7931 51.6898 92.9842C51.7854 93.1747 51.8332 93.3767 51.8332 93.59V100.833C51.8332 101.057 51.7501 101.251 51.584 101.417C51.4179 101.584 51.2232 101.667 50.9998 101.667H47.7632C47.5721 101.667 47.4121 101.602 47.2832 101.473C47.1543 101.344 47.0898 101.184 47.0898 100.993V96.7633H44.9098V100.993C44.9098 101.184 44.8454 101.344 44.7165 101.473C44.5876 101.602 44.4279 101.667 44.2373 101.667H40.9998C40.7765 101.667 40.5818 101.584 40.4157 101.417C40.2496 101.251 40.1665 101.057 40.1665 100.833Z" fill="#424242"/>
<path d="M46.2458 368.512C45.7328 368.461 45.2168 368.571 44.7683 368.825C44.3197 369.079 43.9607 369.465 43.7402 369.931C43.5198 370.397 43.4488 370.919 43.5368 371.427C43.6249 371.935 43.8678 372.403 44.2323 372.768C44.5968 373.132 45.065 373.375 45.5728 373.463C46.0807 373.551 46.6033 373.48 47.0693 373.26C47.5352 373.039 47.9216 372.68 48.1755 372.232C48.4295 371.783 48.5386 371.267 48.488 370.754C48.4302 370.179 48.1754 369.642 47.7668 369.233C47.3581 368.825 46.8208 368.57 46.2458 368.512ZM52.2653 371C52.2637 371.272 52.2438 371.543 52.2055 371.812L53.9716 373.197C54.0485 373.261 54.1003 373.35 54.1178 373.448C54.1353 373.547 54.1174 373.648 54.0673 373.734L52.3966 376.625C52.3458 376.711 52.2665 376.775 52.1726 376.808C52.0787 376.841 51.9762 376.84 51.8833 376.804L50.1294 376.098C50.0326 376.06 49.9279 376.046 49.8245 376.058C49.721 376.069 49.6222 376.107 49.5368 376.166C49.2691 376.351 48.9878 376.514 48.6954 376.656C48.6034 376.701 48.5239 376.768 48.4638 376.85C48.4037 376.933 48.3649 377.029 48.3508 377.13L48.088 379.001C48.0707 379.1 48.0196 379.19 47.9436 379.255C47.8675 379.32 47.771 379.357 47.6708 379.359H44.3294C44.2307 379.358 44.1357 379.322 44.0597 379.259C43.9838 379.196 43.9317 379.109 43.9118 379.013L43.6493 377.145C43.6345 377.043 43.5947 376.945 43.5334 376.862C43.4721 376.779 43.3911 376.712 43.2977 376.668C43.0056 376.527 42.7253 376.362 42.4594 376.177C42.3743 376.117 42.2758 376.08 42.1728 376.069C42.0697 376.057 41.9654 376.071 41.8692 376.11L40.1157 376.816C40.0228 376.851 39.9203 376.852 39.8264 376.82C39.7325 376.787 39.6532 376.722 39.6024 376.637L37.9317 373.746C37.8815 373.66 37.8635 373.558 37.8811 373.46C37.8986 373.362 37.9504 373.273 38.0274 373.209L39.52 372.037C39.6018 371.972 39.666 371.888 39.707 371.792C39.7479 371.696 39.7642 371.591 39.7544 371.487C39.7403 371.324 39.7317 371.162 39.7317 370.999C39.7317 370.836 39.7399 370.676 39.7544 370.516C39.7631 370.413 39.746 370.309 39.7046 370.214C39.6632 370.119 39.5988 370.036 39.5173 369.972L38.0255 368.8C37.9497 368.736 37.899 368.647 37.882 368.55C37.8651 368.452 37.8831 368.351 37.9329 368.266L39.6036 365.375C39.6543 365.289 39.7336 365.225 39.8275 365.192C39.9214 365.159 40.0239 365.16 40.1169 365.196L41.8708 365.902C41.9675 365.94 42.0723 365.954 42.1757 365.942C42.2791 365.931 42.3779 365.893 42.4633 365.834C42.731 365.649 43.0123 365.486 43.3048 365.344C43.3967 365.299 43.4762 365.232 43.5363 365.15C43.5964 365.067 43.6352 364.971 43.6493 364.87L43.9122 362.999C43.9294 362.9 43.9805 362.81 44.0566 362.745C44.1327 362.68 44.2291 362.643 44.3294 362.641H47.6708C47.7694 362.642 47.8645 362.678 47.9404 362.741C48.0163 362.804 48.0685 362.891 48.0883 362.987L48.3508 364.855C48.3656 364.957 48.4054 365.055 48.4667 365.138C48.5281 365.221 48.609 365.288 48.7024 365.332C48.9945 365.473 49.2749 365.638 49.5407 365.823C49.6258 365.883 49.7243 365.92 49.8274 365.931C49.9304 365.943 50.0347 365.929 50.1309 365.89L51.8844 365.184C51.9774 365.149 52.0798 365.148 52.1737 365.18C52.2676 365.213 52.3469 365.278 52.3977 365.363L54.0684 368.254C54.1187 368.34 54.1366 368.442 54.1191 368.54C54.1016 368.638 54.0497 368.727 53.9727 368.791L52.4801 369.963C52.398 370.028 52.3334 370.112 52.2921 370.208C52.2508 370.304 52.2342 370.409 52.2438 370.513C52.2567 370.675 52.2653 370.837 52.2653 371Z" stroke="#424242" stroke-linecap="round" stroke-linejoin="round"/>
</g>
<defs>
<filter id="filter0_d_17_357" x="-4" y="0" width="102" height="418" filterUnits="userSpaceOnUse" color-interpolation-filters="sRGB">
<feFlood flood-opacity="0" result="BackgroundImageFix"/>
<feColorMatrix in="SourceAlpha" type="matrix" values="0 0 0 0 0 0 0 0 0 0 0 0 0 0 0 0 0 0 127 0" result="hardAlpha"/>
<feOffset dy="4"/>
<feGaussianBlur stdDeviation="2"/>
<feComposite in2="hardAlpha" operator="out"/>
<feColorMatrix type="matrix" values="0 0 0 0 0 0 0 0 0 0 0 0 0 0 0 0 0 0 0.25 0"/>
<feBlend mode="normal" in2="BackgroundImageFix" result="effect1_dropShadow_17_357"/>
<feBlend mode="normal" in="SourceGraphic" in2="effect1_dropShadow_17_357" result="shape"/>
</filter>
</defs>
</svg>
