<svg width="142" height="45" viewBox="0 0 142 45" fill="none" xmlns="http://www.w3.org/2000/svg">
<g clip-path="url(#clip0_3_1427)">
<path d="M23.9063 8.43749C21.5391 8.43632 19.2319 9.18186 17.313 10.568C15.3942 11.9541 13.9614 13.9102 13.2188 16.1578C13.1663 16.3395 13.0778 16.5088 12.9584 16.6556C12.8391 16.8023 12.6913 16.9234 12.5241 17.0117C12.3568 17.1 12.1734 17.1537 11.9849 17.1695C11.7965 17.1853 11.6067 17.1629 11.4271 17.1036C11.2475 17.0444 11.0816 16.9495 10.9395 16.8247C10.7974 16.6999 10.6819 16.5476 10.6 16.3772C10.5181 16.2067 10.4714 16.0214 10.4628 15.8325C10.4541 15.6435 10.4837 15.4547 10.5497 15.2775C11.5259 12.3294 13.4502 9.78724 16.0225 8.04728C18.5947 6.30732 21.6704 5.46738 24.77 5.65841C27.8697 5.84945 30.8189 7.06073 33.1581 9.10339C35.4972 11.1461 37.0947 13.9053 37.7016 16.9509C39.8229 17.2375 41.7561 18.3196 43.1094 19.9781C44.4628 21.6366 45.1351 23.7476 44.9903 25.8833C44.8455 28.019 43.8943 30.0198 42.3295 31.4805C40.7647 32.9411 38.7031 33.7524 36.5625 33.75H12.6563C12.2833 33.75 11.9256 33.6018 11.6619 33.3381C11.3982 33.0744 11.25 32.7167 11.25 32.3437C11.25 31.9708 11.3982 31.6131 11.6619 31.3494C11.9256 31.0856 12.2833 30.9375 12.6563 30.9375H36.5625C38.0543 30.9379 39.4852 30.3456 40.5404 29.2909C41.5955 28.2363 42.1885 26.8057 42.1889 25.3139C42.1893 23.822 41.597 22.3912 40.5424 21.336C39.4878 20.2808 38.0572 19.6879 36.5653 19.6875H36.4922C36.1445 19.6896 35.8084 19.5629 35.5487 19.3317C35.2891 19.1006 35.1242 18.7815 35.0859 18.4359C34.7781 15.6862 33.4678 13.1464 31.4054 11.3019C29.343 9.45738 26.6731 8.43761 23.9063 8.43749ZM0 21.0937C0 20.7208 0.148158 20.3631 0.411881 20.0994C0.675604 19.8356 1.03329 19.6875 1.40625 19.6875H15.4688C15.8417 19.6875 16.1994 19.8356 16.4631 20.0994C16.7268 20.3631 16.875 20.7208 16.875 21.0937C16.875 21.4667 16.7268 21.8244 16.4631 22.0881C16.1994 22.3518 15.8417 22.5 15.4688 22.5H1.40625C1.03329 22.5 0.675604 22.3518 0.411881 22.0881C0.148158 21.8244 0 21.4667 0 21.0937ZM5.625 26.7187C5.625 26.3458 5.77316 25.9881 6.03688 25.7244C6.3006 25.4606 6.65829 25.3125 7.03125 25.3125H32.3438C32.7167 25.3125 33.0744 25.4606 33.3381 25.7244C33.6018 25.9881 33.75 26.3458 33.75 26.7187C33.75 27.0917 33.6018 27.4494 33.3381 27.7131C33.0744 27.9768 32.7167 28.125 32.3438 28.125H7.03125C6.65829 28.125 6.3006 27.9768 6.03688 27.7131C5.77316 27.4494 5.625 27.0917 5.625 26.7187ZM0 37.9687C0 37.5958 0.148158 37.2381 0.411881 36.9744C0.675604 36.7106 1.03329 36.5625 1.40625 36.5625H26.7188C27.0917 36.5625 27.4494 36.7106 27.7131 36.9744C27.9768 37.2381 28.125 37.5958 28.125 37.9687C28.125 38.3417 27.9768 38.6994 27.7131 38.9631C27.4494 39.2268 27.0917 39.375 26.7188 39.375H1.40625C1.03329 39.375 0.675604 39.2268 0.411881 38.9631C0.148158 38.6994 0 38.3417 0 37.9687Z" fill="#184E7F"/>
</g>
<path d="M53.2955 34V10.7273H57.5114V20.5795H68.2955V10.7273H72.5227V34H68.2955V24.1136H57.5114V34H53.2955ZM88.0511 26.6591V16.5455H92.1648V34H88.1761V30.8977H87.9943C87.6004 31.875 86.9527 32.6742 86.0511 33.2955C85.1572 33.9167 84.0549 34.2273 82.7443 34.2273C81.6004 34.2273 80.589 33.9735 79.7102 33.4659C78.839 32.9508 78.1572 32.2045 77.6648 31.2273C77.1723 30.2424 76.9261 29.053 76.9261 27.6591V16.5455H81.0398V27.0227C81.0398 28.1288 81.3428 29.0076 81.9489 29.6591C82.5549 30.3106 83.3504 30.6364 84.3352 30.6364C84.9413 30.6364 85.5284 30.4886 86.0966 30.1932C86.6648 29.8977 87.1307 29.4583 87.4943 28.875C87.8655 28.2841 88.0511 27.5455 88.0511 26.6591ZM96.5767 34V10.7273H100.69V19.4318H100.861C101.073 19.0076 101.372 18.5568 101.759 18.0795C102.145 17.5947 102.668 17.1818 103.327 16.8409C103.986 16.4924 104.827 16.3182 105.849 16.3182C107.198 16.3182 108.414 16.6629 109.497 17.3523C110.588 18.0341 111.452 19.0455 112.088 20.3864C112.732 21.7197 113.054 23.3561 113.054 25.2955C113.054 27.2121 112.74 28.8409 112.111 30.1818C111.482 31.5227 110.626 32.5455 109.543 33.25C108.459 33.9545 107.232 34.3068 105.861 34.3068C104.861 34.3068 104.031 34.1402 103.372 33.8068C102.713 33.4735 102.183 33.072 101.781 32.6023C101.387 32.125 101.08 31.6742 100.861 31.25H100.622V34H96.5767ZM100.611 25.2727C100.611 26.4015 100.77 27.3902 101.088 28.2386C101.414 29.0871 101.88 29.75 102.486 30.2273C103.099 30.697 103.842 30.9318 104.713 30.9318C105.622 30.9318 106.384 30.6894 106.997 30.2045C107.611 29.7121 108.073 29.0417 108.384 28.1932C108.702 27.3371 108.861 26.3636 108.861 25.2727C108.861 24.1894 108.705 23.2273 108.395 22.3864C108.084 21.5455 107.622 20.8864 107.009 20.4091C106.395 19.9318 105.63 19.6932 104.713 19.6932C103.834 19.6932 103.088 19.9242 102.474 20.3864C101.861 20.8485 101.395 21.4962 101.077 22.3295C100.766 23.1629 100.611 24.1439 100.611 25.2727ZM120.665 10.7273V34H116.551V10.7273H120.665ZM127.452 40.5455C126.891 40.5455 126.372 40.5 125.895 40.4091C125.425 40.3258 125.05 40.2273 124.77 40.1136L125.724 36.9091C126.323 37.0833 126.857 37.1667 127.327 37.1591C127.796 37.1515 128.209 37.0038 128.565 36.7159C128.929 36.4356 129.236 35.9659 129.486 35.3068L129.838 34.3636L123.509 16.5455H127.872L131.895 29.7273H132.077L136.111 16.5455H140.486L133.497 36.1136C133.171 37.0379 132.74 37.8295 132.202 38.4886C131.664 39.1553 131.005 39.6629 130.224 40.0114C129.452 40.3674 128.527 40.5455 127.452 40.5455Z" fill="#184E7F"/>
<defs>
<clipPath id="clip0_3_1427">
<rect width="45" height="45" fill="white"/>
</clipPath>
</defs>
</svg>
