<svg width="31" height="30" viewBox="0 0 31 30" fill="none" xmlns="http://www.w3.org/2000/svg">
<path fill-rule="evenodd" clip-rule="evenodd" d="M29.9408 3.46459C29.6862 1.88919 28.736 0.940541 27.2052 0.724054C27.1679 0.715135 23.4397 0 17.5889 0C11.7397 0 8.01164 0.715135 7.98651 0.720811C6.78894 0.891081 5.9538 1.50486 5.52002 2.49811C8.02716 2.22095 10.5479 2.08479 13.0703 2.09027C18.7411 2.09027 22.5138 2.74216 23.0676 2.84432C25.5641 3.21892 27.3 4.95081 27.72 7.48865C27.9016 8.31568 28.4757 11.2232 28.4757 14.6943C28.4757 16.5527 28.3087 18.2578 28.1287 19.5608C29.1179 19.1424 29.7406 18.3041 29.9368 17.0927C29.9433 17.0627 30.6608 14.0003 30.6608 10.2697C30.6608 6.54 29.9433 3.47757 29.9392 3.46378" fill="white"/>
<path fill-rule="evenodd" clip-rule="evenodd" d="M25.4222 7.88908C25.1676 6.31286 24.2165 5.36421 22.6865 5.14691C22.6492 5.13881 18.9211 4.42529 13.0711 4.42529C7.22189 4.42529 3.49297 5.13881 3.46865 5.14529C1.92568 5.36421 0.975405 6.31286 0.724865 7.87205C0.716757 7.90205 0 10.9645 0 14.695C0 18.4248 0.716757 21.4872 0.720811 21.5002C0.975405 23.0764 1.92568 24.025 3.45649 24.2423C3.48649 24.248 5.90514 24.711 9.88865 24.8918L12.2627 29.0042C12.3446 29.1462 12.4624 29.264 12.6043 29.346C12.7462 29.428 12.9072 29.4711 13.0711 29.4711C13.235 29.4711 13.3959 29.428 13.5378 29.346C13.6798 29.264 13.7976 29.1462 13.8795 29.0042L16.2543 24.8926C20.2378 24.711 22.6541 24.2488 22.6743 24.2439C24.2165 24.025 25.1676 23.0764 25.4181 21.5172C25.4262 21.4872 26.1422 18.4248 26.1422 14.695C26.1422 10.9645 25.4254 7.90205 25.4222 7.88908Z" fill="white"/>
</svg>
